<svg width="991" height="776" viewBox="0 0 991 991" fill="none" xmlns="http://www.w3.org/2000/svg">
<path fill-rule="evenodd" clip-rule="evenodd" d="M147.511 774.613L8.56801 598.081C3.01773 591.029 0 582.316 0 573.342V199.876C0 190.884 3.03023 182.153 8.60161 175.094L146.799 0L596.362 578.199C617.127 604.906 650.631 618.408 684.111 613.562L249.358 56.5344C231.421 33.553 247.796 0 276.949 0H619.975C619.975 0 938.515 16.39 986.972 337.067C1014.88 521.737 888.631 649.193 888.631 649.193L986.972 774.613H823.588C816.049 774.613 808.912 771.21 804.165 765.353L778.176 733.281C778.176 733.281 677.697 783.164 615.7 774.613C563.289 767.384 527.335 723.305 527.335 723.305L145.374 236.588L147.511 774.613ZM516.576 145.376H607.861C607.861 145.376 744.675 143.288 813.094 270.083C883.371 400.321 815.398 508.975 801.812 528.492C800.692 530.1 798.385 530.104 797.184 528.555L510.252 158.276C506.179 153.019 509.926 145.376 516.576 145.376Z" fill="#E3E3E3"/>
<path d="M54.552 116.869L145.373 236.588V299.298L28.6757 149.649L54.552 116.869Z" fill="#808080"/>
<path d="M778.176 733.281L684.111 613.562C653.408 615.067 637.598 610.704 617.125 597.884L738.269 750.527C755.109 743.884 763.817 740.103 778.176 733.281Z" fill="#808080"/>
</svg>
