<svg width="696" height="545" viewBox="0 0 696 545" fill="none" xmlns="http://www.w3.org/2000/svg">
<path fill-rule="evenodd" clip-rule="evenodd" d="M103.5 543.5L8.568 422.886C3.01771 415.834 0 407.121 0 398.147V144.384C0 135.391 3.03023 126.661 8.60161 119.602L103 0L418.432 405.688C433.001 424.426 456.509 433.9 480 430.5L188.124 56.5345C170.188 33.5531 186.563 0 215.716 0H435C435 0 658.5 11.4999 692.5 236.5C712.08 366.072 623.5 455.5 623.5 455.5L692.5 543.5H581.419C573.88 543.5 566.743 540.097 561.996 534.24L546 514.5C546 514.5 475.5 549.5 432 543.5C395.227 538.428 370 507.5 370 507.5L102 166L103.5 543.5ZM367.32 102.001H426.5C426.5 102.001 522.494 100.537 570.5 189.501C618.807 279.024 574.016 354.012 563.212 369.899C562.109 371.52 559.831 371.492 558.63 369.943L360.996 114.902C356.923 109.645 360.67 102.001 367.32 102.001Z" fill="#DFDFDF"/>
<path d="M38.2759 82L102 166V210L20.12 105L38.2759 82Z" fill="#808080"/>
<path d="M546 514.5L480 430.5C458.458 431.556 447.365 428.495 433 419.5L518 526.6C529.816 521.939 535.925 519.287 546 514.5Z" fill="#808080"/>
</svg>
