<svg width="1000" height="697" viewBox="0 0 1000 697" fill="none" xmlns="http://www.w3.org/2000/svg">
<rect x="30" y="30" width="417" height="303" rx="15" fill="white"/>
<rect x="30" y="30" width="417" height="303" rx="15" fill="#D7D7D7"/>
<rect x="40" y="93" width="397" height="178.185" rx="15" fill="#D7D7D7"/>
<g clip-path="url(#clip0_83_223)">
<path d="M112.893 170.578C112.893 176.936 107.534 182.095 100.917 182.095C94.301 182.095 88.9415 176.941 88.9415 170.578C88.9415 164.214 83.5821 159.06 76.9657 159.06C70.3494 159.06 65 153.906 65 147.548C65 141.189 70.3594 136.03 76.9758 136.03C83.5922 136.03 88.9516 130.876 88.9516 124.513C88.9516 118.149 94.311 113 100.922 113C107.534 113 112.898 118.154 112.898 124.517C112.898 130.881 107.539 136.035 100.922 136.035C94.306 136.035 88.9466 141.189 88.9466 147.552C88.9466 153.915 94.306 159.07 100.922 159.07C107.539 159.07 112.898 164.224 112.898 170.587L112.893 170.578Z" fill="#000020"/>
<path d="M156 216.638C156 222.996 150.64 228.155 144.024 228.155C137.408 228.155 132.048 233.31 132.048 239.673C132.048 246.036 126.689 251.19 120.072 251.19C113.456 251.19 108.097 246.036 108.097 239.673C108.097 233.31 113.456 228.155 120.072 228.155C126.689 228.155 132.048 223.001 132.048 216.638C132.048 210.275 126.689 205.12 120.072 205.12C113.456 205.12 108.097 199.966 108.097 193.603C108.097 187.24 113.456 182.085 120.072 182.085C126.689 182.085 132.048 176.931 132.048 170.568C132.048 164.205 126.689 159.051 120.072 159.051C113.456 159.051 108.097 153.896 108.097 147.533C108.097 141.17 113.456 136.016 120.072 136.016C126.689 136.016 132.048 141.17 132.048 147.533C132.048 153.896 137.408 159.051 144.024 159.051C150.64 159.051 156 164.205 156 170.568C156 176.931 150.64 182.085 144.024 182.085C137.408 182.085 132.048 187.24 132.048 193.603C132.048 199.966 137.408 205.12 144.024 205.12C150.64 205.12 156 210.275 156 216.638Z" fill="#4630EB"/>
</g>
<path d="M192.218 186.676C183.685 186.676 178.067 179.15 178.067 171.889C178.067 164.098 183.261 157.208 191.582 157.208C200.645 157.261 207.058 164.045 204.779 174.274H183.844C184.162 178.249 187.978 181.853 192.801 181.906C195.027 181.906 199.373 180.793 200.486 178.938L204.567 182.065C201.811 185.298 197.2 186.676 192.218 186.676ZM183.844 169.663H199.585C200.115 166.695 198.048 161.925 191.741 161.925C186.706 161.925 183.844 166.059 183.844 169.663ZM209.963 182.648L212.083 177.136C220.245 182.966 232.17 183.814 232.17 176.606C232.223 170.034 209.274 172.737 209.857 159.593C210.281 149.046 225.28 146.237 236.887 154.77L234.29 159.328C226.075 152.756 215.687 153.816 215.422 159.964C215.051 167.861 237.788 164.734 237.788 176.288C237.788 187.047 225.757 191.022 209.963 182.648ZM258.78 187.365C254.805 187.365 251.36 185.245 249.505 182.171V196.216H244.205V172.843C244.205 164.787 250.777 158.268 258.78 158.268C266.783 158.268 273.302 164.787 273.302 172.843C273.302 180.846 266.783 187.365 258.78 187.365ZM258.78 163.568C253.692 163.568 249.505 167.702 249.505 172.843C249.505 177.931 253.692 182.065 258.78 182.065C263.868 182.065 268.002 177.931 268.002 172.843C268.002 167.702 263.868 163.568 258.78 163.568ZM291.593 186.676C283.06 186.676 277.442 179.15 277.442 171.889C277.442 164.098 282.636 157.208 290.957 157.208C300.02 157.261 306.433 164.045 304.154 174.274H283.219C283.537 178.249 287.353 181.853 292.176 181.906C294.402 181.906 298.748 180.793 299.861 178.938L303.942 182.065C301.186 185.298 296.575 186.676 291.593 186.676ZM283.219 169.663H298.96C299.49 166.695 297.423 161.925 291.116 161.925C286.081 161.925 283.219 166.059 283.219 169.663ZM323.33 187.206C315.38 187.206 308.755 180.475 308.755 172.313C308.755 163.356 315.963 157.473 323.33 157.473C328.471 157.473 333.241 160.229 335.308 164.151L331.439 167.808C329.849 164.151 326.139 162.773 323.489 162.773C318.931 162.773 314.055 166.271 314.055 172.313C314.055 177.56 318.295 181.906 323.489 181.906C327.04 181.906 330.379 179.68 331.492 176.924L335.361 180.528C333.241 184.503 328.471 187.206 323.33 187.206ZM355.45 186.305C349.991 186.305 341.67 184.927 341.67 175.387V163.462H339.126V158.162H341.67V152.332H346.97V158.162H353.754V163.462H346.97V174.168C346.97 180.528 351.687 181.005 355.45 181.005V186.305ZM361.296 186.093V158.162H366.384V161.554C367.815 158.904 371.79 157.844 375.553 158.162V163.515C370.995 162.826 366.596 165.37 366.596 169.769V186.093H361.296ZM393.676 186.199C385.673 186.199 379.207 179.733 379.207 171.783C379.207 163.833 385.673 157.367 393.676 157.367C401.573 157.367 408.039 163.833 408.039 171.783V186.252H402.739V181.164C400.937 184.132 397.545 186.199 393.676 186.199ZM393.676 180.899C398.658 180.899 402.739 176.818 402.739 171.783C402.739 166.748 398.658 162.667 393.676 162.667C388.588 162.667 384.507 166.748 384.507 171.783C384.507 176.818 388.588 180.899 393.676 180.899Z" fill="#000020"/>
<path d="M179.625 220.63L180.525 218.29C183.99 220.765 189.053 221.125 189.053 218.065C189.075 215.275 179.333 216.423 179.58 210.843C179.76 206.365 186.128 205.173 191.055 208.795L189.953 210.73C186.465 207.94 182.055 208.39 181.943 211C181.785 214.353 191.438 213.025 191.438 217.93C191.438 222.498 186.33 224.185 179.625 220.63ZM201.497 222.43C197.087 222.43 193.532 218.875 193.532 214.488C193.532 210.1 197.087 206.523 201.497 206.523C205.884 206.523 209.439 210.1 209.439 214.488C209.439 218.875 205.884 222.43 201.497 222.43ZM201.474 220.09C204.557 220.09 207.099 217.57 207.099 214.488C207.077 211.383 204.512 208.885 201.474 208.863C198.392 208.863 195.872 211.383 195.872 214.488C195.872 217.57 198.392 220.09 201.474 220.09ZM212.698 222.093V206.928H224.06V208.953H215.06V213.385H222.98V215.433H215.06V222.093H212.698ZM229.361 222.093V209.178H224.996V206.928H236.066V209.178H231.701V222.093H229.361ZM259.528 206.928L251.316 222.093L248.278 216.49L245.263 222.093L237.028 206.928H239.616L245.263 217.525L246.996 214.218L243.081 206.928H245.668L248.278 211.968L250.911 206.928H253.498L249.583 214.218L251.316 217.525L256.941 206.928H259.528ZM261.125 222.093V206.928H271.993V208.953H263.488V213.385H270.913V215.433H263.488V220.068H271.993V222.093H261.125ZM275.43 222.093V206.928H281.977C285.105 206.928 287.017 208.548 287.017 210.708C287.017 212.485 286.117 213.7 284.925 214.083C287.017 214.533 287.827 216.175 287.827 217.93C287.827 220.428 286.05 222.093 282.382 222.093H275.43ZM277.792 213.115H282.247C283.53 213.115 284.61 212.553 284.61 211.09C284.61 209.56 283.035 208.998 281.572 208.998H277.792V213.115ZM277.792 220H282.045C284.07 220 285.397 219.19 285.397 217.593C285.397 216.22 284.542 215.208 282.247 215.208H277.792V220ZM296.102 220.63L297.002 218.29C300.467 220.765 305.53 221.125 305.53 218.065C305.552 215.275 295.81 216.423 296.057 210.843C296.237 206.365 302.605 205.173 307.532 208.795L306.43 210.73C302.942 207.94 298.532 208.39 298.42 211C298.262 214.353 307.915 213.025 307.915 217.93C307.915 222.498 302.807 224.185 296.102 220.63ZM317.974 222.43C313.564 222.43 310.009 218.875 310.009 214.488C310.009 210.1 313.564 206.523 317.974 206.523C322.361 206.523 325.916 210.1 325.916 214.488C325.916 218.875 322.361 222.43 317.974 222.43ZM317.951 220.09C321.034 220.09 323.576 217.57 323.576 214.488C323.554 211.383 320.989 208.885 317.951 208.863C314.869 208.863 312.349 211.383 312.349 214.488C312.349 217.57 314.869 220.09 317.951 220.09ZM329.175 222.093V206.928H331.537V219.843H339.502V222.093H329.175ZM347.482 222.385C343.814 222.385 341.564 219.775 341.564 216.333V206.928H343.859V216.333C343.859 218.515 345.164 220.045 347.482 220.045C349.777 220.045 351.082 218.515 351.082 216.333V206.928H353.377V216.333C353.377 219.775 351.127 222.385 347.482 222.385ZM359.637 222.093V209.178H355.272V206.928H366.342V209.178H361.977V222.093H359.637ZM368.484 222.093V206.928H370.846V222.093H368.484ZM382.068 222.43C377.658 222.43 374.103 218.875 374.103 214.488C374.103 210.1 377.658 206.523 382.068 206.523C386.455 206.523 390.01 210.1 390.01 214.488C390.01 218.875 386.455 222.43 382.068 222.43ZM382.045 220.09C385.128 220.09 387.67 217.57 387.67 214.488C387.648 211.383 385.083 208.885 382.045 208.863C378.963 208.863 376.443 211.383 376.443 214.488C376.443 217.57 378.963 220.09 382.045 220.09ZM407.264 222.723L395.362 211.945V222.093H393.022V206.928L404.902 217.705V206.928H407.264V222.723Z" fill="#000020"/>
<rect x="477" y="30" width="493" height="303" rx="15" fill="#D7D7D7"/>
<path d="M793.32 266.323C790.869 266.323 789.159 265.145 788.323 263.435L791.059 262.352C791.363 263.283 792.199 263.815 793.32 263.815C794.707 263.815 795.6 262.865 795.6 261.706C795.562 259.958 793.263 259.331 792.161 260.262L790.698 258.229L794.422 255.398H789.786V252.985H798.298V254.98L795.03 257.659C797.12 258.096 798.564 259.787 798.526 261.706C798.488 264.271 796.36 266.323 793.32 266.323ZM800.135 264.898L801.218 262.143C803.973 264.005 807.868 264.442 807.868 262.352C807.868 260.566 799.926 261.326 800.135 256.481C800.287 252.51 805.892 251.389 810.3 254.505L809.027 256.766C806.253 254.638 803.004 254.904 802.947 256.671C802.871 258.875 810.68 257.925 810.68 262.2C810.68 266.323 806.253 267.824 800.135 264.898ZM818.151 266V252.985H820.944V266H818.151ZM836.135 266.703L826.711 258.856V266H823.918V253.004L833.342 260.851V252.985H836.135V266.703ZM856.323 266.703L846.899 258.856V266H844.106V253.004L853.53 260.851V252.985H856.323V266.703ZM868.665 266L867.582 264.024H861.255L860.172 266.019L857.113 266L864.409 252.985L871.724 266H868.665ZM862.661 261.554H866.157L864.409 258.343L862.661 261.554ZM872.661 266L872.68 252.985L879.805 259.616L886.949 252.985V266H884.175V259.084L879.805 263.454L875.454 259.084V266H872.661ZM889.957 266V252.985H899.362V255.379H892.75V258.172H898.431V260.566H892.75V263.625H899.362V266H889.957Z" fill="black"/>
<path opacity="0.2" d="M846.998 151.109C846.998 157.746 841.403 163.132 834.496 163.132C827.589 163.132 821.994 157.751 821.994 151.109C821.994 144.466 816.399 139.085 809.492 139.085C802.585 139.085 797 133.704 797 127.066C797 120.428 802.595 115.042 809.502 115.042C816.409 115.042 822.004 109.662 822.004 103.019C822.004 96.3758 827.599 91 834.501 91C841.403 91 847.004 96.3809 847.004 103.024C847.004 109.667 841.409 115.047 834.501 115.047C827.594 115.047 821.999 120.428 821.999 127.071C821.999 133.714 827.594 139.095 834.501 139.095C841.409 139.095 847.004 144.476 847.004 151.119L846.998 151.109Z" fill="#000020"/>
<path d="M892 199.193C892 205.831 886.405 211.217 879.498 211.217C872.591 211.217 866.996 216.598 866.996 223.241C866.996 229.884 861.401 235.265 854.493 235.265C847.586 235.265 841.991 229.884 841.991 223.241C841.991 216.598 847.586 211.217 854.493 211.217C861.401 211.217 866.996 205.836 866.996 199.193C866.996 192.551 861.401 187.17 854.493 187.17C847.586 187.17 841.991 181.789 841.991 175.146C841.991 168.503 847.586 163.122 854.493 163.122C861.401 163.122 866.996 157.741 866.996 151.099C866.996 144.456 861.401 139.075 854.493 139.075C847.586 139.075 841.991 133.694 841.991 127.051C841.991 120.408 847.586 115.027 854.493 115.027C861.401 115.027 866.996 120.408 866.996 127.051C866.996 133.694 872.591 139.075 879.498 139.075C886.405 139.075 892 144.456 892 151.099C892 157.741 886.405 163.122 879.498 163.122C872.591 163.122 866.996 168.503 866.996 175.146C866.996 181.789 872.591 187.17 879.498 187.17C886.405 187.17 892 192.551 892 199.193Z" fill="#4630EB"/>
<path d="M558.558 266V252.985H561.351V263.34H567.887V266H558.558ZM569.617 266V252.985H579.022V255.379H572.41V258.172H578.091V260.566H572.41V263.625H579.022V266H569.617ZM583.316 266V255.645H579.972V252.985H589.453V255.645H586.109V266H583.316ZM593.132 266V255.645H589.788V252.985H599.269V255.645H595.925V266H593.132ZM600.807 266V252.985H610.212V255.379H603.6V258.172H609.281V260.566H603.6V263.625H610.212V266H600.807ZM612.645 266V252.985H618.459C621.632 252.985 623.266 255.303 623.266 257.64C623.266 259.502 622.335 261.155 620.606 261.877L623.513 265.981H620.264L617.661 262.295H615.438V266H612.645ZM615.438 255.417V259.863H618.307C619.504 259.863 620.53 258.913 620.53 257.64C620.53 256.329 619.504 255.417 618.307 255.417H615.438ZM630.032 264.898L631.115 262.143C633.87 264.005 637.765 264.442 637.765 262.352C637.765 260.566 629.823 261.326 630.032 256.481C630.184 252.51 635.789 251.389 640.197 254.505L638.924 256.766C636.15 254.638 632.901 254.904 632.844 256.671C632.768 258.875 640.577 257.925 640.577 262.2C640.577 266.323 636.15 267.824 630.032 264.898Z" fill="black"/>
<path d="M596.648 150.688C596.648 157.279 591.093 162.627 584.234 162.627C577.375 162.627 571.819 157.284 571.819 150.688C571.819 144.091 566.263 138.748 559.404 138.748C552.545 138.748 547 133.405 547 126.814C547 120.222 552.556 114.874 559.415 114.874C566.274 114.874 571.829 109.531 571.829 102.935C571.829 96.3382 577.385 91 584.239 91C591.093 91 596.654 96.3432 596.654 102.94C596.654 109.536 591.098 114.879 584.239 114.879C577.38 114.879 571.824 120.222 571.824 126.819C571.824 133.415 577.38 138.758 584.239 138.758C591.098 138.758 596.654 144.101 596.654 150.698L596.648 150.688Z" fill="#000020"/>
<path d="M641.335 198.436C641.335 205.028 635.779 210.376 628.92 210.376C622.061 210.376 616.505 215.719 616.505 222.315C616.505 228.912 610.949 234.255 604.09 234.255C597.232 234.255 591.676 228.912 591.676 222.315C591.676 215.719 597.232 210.376 604.09 210.376C610.949 210.376 616.505 205.033 616.505 198.436C616.505 191.84 610.949 186.497 604.09 186.497C597.232 186.497 591.676 181.154 591.676 174.557C591.676 167.961 597.232 162.618 604.09 162.618C610.949 162.618 616.505 157.274 616.505 150.678C616.505 144.082 610.949 138.739 604.09 138.739C597.232 138.739 591.676 133.395 591.676 126.799C591.676 120.203 597.232 114.859 604.09 114.859C610.949 114.859 616.505 120.203 616.505 126.799C616.505 133.395 622.061 138.739 628.92 138.739C635.779 138.739 641.335 144.082 641.335 150.678C641.335 157.274 635.779 162.618 628.92 162.618C622.061 162.618 616.505 167.961 616.505 174.557C616.505 181.154 622.061 186.497 628.92 186.497C635.779 186.497 641.335 191.84 641.335 198.436Z" fill="#4630EB"/>
<g clip-path="url(#clip1_83_223)">
<path d="M603.551 138.543C610.628 138.543 616.371 144.121 616.371 151.007C616.371 157.412 611.45 161.921 605.056 162.628C607.521 162.816 609.88 164.361 611.958 165.826C614.277 167.464 616.021 169.735 616.877 172.403C616.877 172.414 616.882 172.424 616.888 172.435C618.443 167.254 623.362 163.471 629.191 163.471C636.269 163.471 642.011 157.893 642.011 151.007C642.011 144.121 636.274 138.543 629.191 138.543C622.108 138.543 616.371 132.965 616.371 126.079C616.371 119.192 610.628 113.62 603.551 113.62C596.473 113.62 590.73 119.198 590.73 126.084C590.73 132.97 596.468 138.548 603.551 138.548V138.543Z" fill="#ACACB2"/>
</g>
<path d="M720.65 192.9V185.3H713.1V178.65H720.65V171.05H727.35V178.65H734.9V185.3H727.35V192.9H720.65Z" fill="black"/>
<rect x="363" y="363" width="303" height="303" rx="15" fill="#000020"/>
<path d="M447.945 525.434L448.627 521.807H445.713V518.955H449.185L449.96 514.832H447.046V511.98H450.518L451.231 508.415H454.083L453.401 511.98H458.051L458.764 508.415H461.616L460.934 511.98H464.22V514.832H460.376L459.57 518.955H462.887V521.807H459.043L458.33 525.434H455.478L456.16 521.807H451.51L450.797 525.434H447.945ZM452.037 518.955H456.718L457.493 514.832H452.843L452.037 518.955ZM475.088 525.434C469.694 525.434 466.222 520.474 466.222 514.491C466.222 508.539 469.694 503.548 475.088 503.548C480.513 503.548 483.985 508.539 483.985 514.491C483.985 520.474 480.513 525.434 475.088 525.434ZM475.088 521.9C478.343 521.9 479.986 518.459 479.986 514.491C479.986 510.585 478.343 507.082 475.088 507.082C471.864 507.082 470.221 510.585 470.221 514.491C470.221 518.459 471.864 521.9 475.088 521.9ZM495.462 525.434C490.068 525.434 486.596 520.474 486.596 514.491C486.596 508.539 490.068 503.548 495.462 503.548C500.887 503.548 504.359 508.539 504.359 514.491C504.359 520.474 500.887 525.434 495.462 525.434ZM495.462 521.9C498.717 521.9 500.36 518.459 500.36 514.491C500.36 510.585 498.717 507.082 495.462 507.082C492.238 507.082 490.595 510.585 490.595 514.491C490.595 518.459 492.238 521.9 495.462 521.9ZM515.836 525.434C510.442 525.434 506.97 520.474 506.97 514.491C506.97 508.539 510.442 503.548 515.836 503.548C521.261 503.548 524.733 508.539 524.733 514.491C524.733 520.474 521.261 525.434 515.836 525.434ZM515.836 521.9C519.091 521.9 520.734 518.459 520.734 514.491C520.734 510.585 519.091 507.082 515.836 507.082C512.612 507.082 510.969 510.585 510.969 514.491C510.969 518.459 512.612 521.9 515.836 521.9ZM536.21 525.434C530.816 525.434 527.344 520.474 527.344 514.491C527.344 508.539 530.816 503.548 536.21 503.548C541.635 503.548 545.107 508.539 545.107 514.491C545.107 520.474 541.635 525.434 536.21 525.434ZM536.21 521.9C539.465 521.9 541.108 518.459 541.108 514.491C541.108 510.585 539.465 507.082 536.21 507.082C532.986 507.082 531.343 510.585 531.343 514.491C531.343 518.459 532.986 521.9 536.21 521.9ZM547.35 525L547.319 522.799C547.319 513.933 558.634 515.855 558.634 510.12C558.634 508.446 557.58 507.02 555.007 507.02C552.744 507.02 551.442 508.663 550.946 510.244L547.505 509.128C548.125 505.749 551.132 503.424 555.1 503.424C559.006 503.424 562.354 505.594 562.354 509.872C562.354 518.025 551.411 516.847 551.411 521.714H561.951V525H547.35ZM573.537 525.434C568.143 525.434 564.671 520.474 564.671 514.491C564.671 508.539 568.143 503.548 573.537 503.548C578.962 503.548 582.434 508.539 582.434 514.491C582.434 520.474 578.962 525.434 573.537 525.434ZM573.537 521.9C576.792 521.9 578.435 518.459 578.435 514.491C578.435 510.585 576.792 507.082 573.537 507.082C570.313 507.082 568.67 510.585 568.67 514.491C568.67 518.459 570.313 521.9 573.537 521.9Z" fill="white"/>
<g clip-path="url(#clip2_83_223)">
<rect x="696" y="363" width="274" height="303" rx="15" fill="#D7D7D7"/>
<rect x="696" y="363" width="274" height="151.5" fill="#D9D9D9"/>
<rect x="696" y="515" width="274" height="151.5" fill="#0C0C0C"/>
<path d="M834.209 431.127C834.209 435.668 830.381 439.354 825.655 439.354C820.929 439.354 817.101 435.672 817.101 431.127C817.101 426.582 813.273 422.9 808.547 422.9C803.821 422.9 800 419.218 800 414.677C800 410.135 803.828 406.45 808.554 406.45C813.28 406.45 817.108 402.768 817.108 398.223C817.108 393.678 820.936 390 825.659 390C830.381 390 834.213 393.682 834.213 398.227C834.213 402.772 830.385 406.453 825.659 406.453C820.933 406.453 817.105 410.135 817.105 414.68C817.105 419.225 820.933 422.907 825.659 422.907C830.385 422.907 834.213 426.589 834.213 431.134L834.209 431.127Z" fill="#000020"/>
<path d="M865 464.027C865 468.569 861.172 472.254 856.446 472.254C851.72 472.254 847.891 475.936 847.891 480.481C847.891 485.026 844.063 488.707 839.337 488.707C834.611 488.707 830.783 485.026 830.783 480.481C830.783 475.936 834.611 472.254 839.337 472.254C844.063 472.254 847.891 468.572 847.891 464.027C847.891 459.482 844.063 455.8 839.337 455.8C834.611 455.8 830.783 452.119 830.783 447.574C830.783 443.029 834.611 439.347 839.337 439.347C844.063 439.347 847.891 435.665 847.891 431.12C847.891 426.575 844.063 422.893 839.337 422.893C834.611 422.893 830.783 419.212 830.783 414.667C830.783 410.122 834.611 406.44 839.337 406.44C844.063 406.44 847.891 410.122 847.891 414.667C847.891 419.212 851.72 422.893 856.446 422.893C861.172 422.893 865 426.575 865 431.12C865 435.665 861.172 439.347 856.446 439.347C851.72 439.347 847.891 443.029 847.891 447.574C847.891 452.119 851.72 455.8 856.446 455.8C861.172 455.8 865 459.482 865 464.027Z" fill="#000020"/>
<path d="M834.209 583.127C834.209 587.668 830.381 591.354 825.655 591.354C820.929 591.354 817.101 587.672 817.101 583.127C817.101 578.582 813.273 574.9 808.547 574.9C803.821 574.9 800 571.218 800 566.677C800 562.135 803.828 558.45 808.554 558.45C813.28 558.45 817.108 554.768 817.108 550.223C817.108 545.678 820.936 542 825.659 542C830.381 542 834.213 545.682 834.213 550.227C834.213 554.772 830.385 558.453 825.659 558.453C820.933 558.453 817.105 562.135 817.105 566.68C817.105 571.225 820.933 574.907 825.659 574.907C830.385 574.907 834.213 578.589 834.213 583.134L834.209 583.127Z" fill="#D9D9D9"/>
<path d="M865 616.027C865 620.568 861.172 624.253 856.446 624.253C851.72 624.253 847.891 627.935 847.891 632.48C847.891 637.025 844.063 640.707 839.337 640.707C834.611 640.707 830.783 637.025 830.783 632.48C830.783 627.935 834.611 624.253 839.337 624.253C844.063 624.253 847.891 620.572 847.891 616.027C847.891 611.482 844.063 607.8 839.337 607.8C834.611 607.8 830.783 604.118 830.783 599.573C830.783 595.028 834.611 591.346 839.337 591.346C844.063 591.346 847.891 587.665 847.891 583.12C847.891 578.575 844.063 574.893 839.337 574.893C834.611 574.893 830.783 571.211 830.783 566.666C830.783 562.121 834.611 558.439 839.337 558.439C844.063 558.439 847.891 562.121 847.891 566.666C847.891 571.211 851.72 574.893 856.446 574.893C861.172 574.893 865 578.575 865 583.12C865 587.665 861.172 591.346 856.446 591.346C851.72 591.346 847.891 595.028 847.891 599.573C847.891 604.118 851.72 607.8 856.446 607.8C861.172 607.8 865 611.482 865 616.027Z" fill="#D9D9D9"/>
</g>
<rect x="30" y="363" width="303" height="303" rx="15" fill="#4630EB"/>
<path d="M114.04 525.448L114.744 521.704H111.736V518.76H115.32L116.12 514.504H113.112V511.56H116.696L117.432 507.88H120.376L119.672 511.56H124.472L125.208 507.88H128.152L127.448 511.56H130.84V514.504H126.872L126.04 518.76H129.464V521.704H125.496L124.76 525.448H121.816L122.52 521.704H117.72L116.984 525.448H114.04ZM118.264 518.76H123.096L123.896 514.504H119.096L118.264 518.76ZM143.371 525V520.296H132.618V516.776L140.363 503.432H145.003L137.259 516.776H143.499V509.576H147.371V516.776H150.635V520.296H147.371V525H143.371ZM160.917 525.608C156.181 525.608 152.309 521.768 152.309 517C152.309 514.856 153.301 512.904 154.389 511.368L159.989 503.24H164.789L160.789 509.064C166.325 508.488 169.557 512.552 169.557 517C169.525 521.768 165.653 525.608 160.917 525.608ZM160.917 521.48C163.317 521.48 165.397 519.528 165.397 517C165.397 514.92 163.765 512.552 160.949 512.552C160.085 512.552 158.805 512.968 158.037 513.64C157.045 514.472 156.469 515.912 156.469 517C156.469 519.56 158.613 521.48 160.917 521.48ZM179.206 525.544C175.11 525.544 172.454 523.688 170.982 520.904L174.918 519.336C175.59 520.968 177.062 521.928 179.206 521.928C181.862 521.928 183.494 520.072 183.462 517.864C183.43 514.696 179.494 513.416 177.318 514.888L175.206 511.912L181.862 506.728H173.382V503.24H187.494V506.152L181.478 511.08C185.19 511.624 187.75 514.568 187.686 517.864C187.622 522.12 184.262 525.544 179.206 525.544ZM199.715 525.448C194.147 525.448 190.563 520.328 190.563 514.152C190.563 508.008 194.147 502.856 199.715 502.856C205.315 502.856 208.899 508.008 208.899 514.152C208.899 520.328 205.315 525.448 199.715 525.448ZM199.715 521.8C203.075 521.8 204.771 518.248 204.771 514.152C204.771 510.12 203.075 506.504 199.715 506.504C196.387 506.504 194.691 510.12 194.691 514.152C194.691 518.248 196.387 521.8 199.715 521.8ZM213.162 525V503.24H228.81V506.696H217.162V512.2H227.242V515.688H217.162V521.544H228.81V525H213.162ZM233.287 525V503.24H242.759C247.239 503.24 250.023 505.576 250.023 508.68C250.023 511.24 248.775 512.968 247.047 513.544C250.023 514.152 251.239 516.52 251.239 519.048C251.239 522.632 248.615 525 243.367 525H233.287ZM237.287 511.848H242.823C244.455 511.848 245.959 511.208 245.959 509.384C245.959 507.464 243.943 506.824 242.055 506.824H237.287V511.848ZM237.287 521.416H242.823C245.383 521.416 247.079 520.456 247.079 518.408C247.079 516.648 245.895 515.432 243.047 515.432H237.287V521.416Z" fill="white"/>
<defs>
<clipPath id="clip0_83_223">
<rect width="91" height="138.185" fill="white" transform="translate(65 113)"/>
</clipPath>
<clipPath id="clip1_83_223">
<rect width="51.2701" height="58.8098" fill="white" transform="translate(590.73 113.62)"/>
</clipPath>
<clipPath id="clip2_83_223">
<rect x="696" y="363" width="274" height="303" rx="15" fill="white"/>
</clipPath>
</defs>
</svg>
